<?xml version="1.0" encoding="UTF-8"?>
<svg version="1.1" viewBox="0 0 1600 160" width="1280" height="1280" xmlns="http://www.w3.org/2000/svg">
<path transform="translate(1599,1)" d="m0 0c1.26 2.53 0.889 3.57 0.395 6.33-0.236 1.34-0.236 1.34-0.476 2.71-0.177 0.968-0.354 1.94-0.536 2.93-0.177 0.991-0.353 1.98-0.535 3-0.375 2.1-0.754 4.2-1.14 6.29-0.585 3.22-1.16 6.44-1.73 9.66-0.365 2.04-0.731 4.07-1.1 6.11-0.173 0.968-0.346 1.94-0.524 2.93-0.163 0.894-0.327 1.79-0.495 2.71-0.214 1.18-0.214 1.18-0.433 2.39-0.431 1.94-0.431 1.94-1.43 3.94-0.603-0.205-1.21-0.41-1.83-0.621-0.799-0.269-1.6-0.539-2.42-0.816-0.789-0.267-1.58-0.534-2.39-0.809-2.11-0.673-4.21-1.25-6.36-1.75-0.471 0.687-0.941 1.37-1.43 2.08-0.623 0.901-1.25 1.8-1.89 2.73-0.615 0.893-1.23 1.79-1.86 2.71-1.51 2.05-3.01 3.72-4.82 5.48-0.139-0.635-0.277-1.27-0.42-1.92-2.25-11.8-2.25-11.8-8.29-21.7-3.83-2.38-7.87-3.52-12.3-4.37v-3h2v2c1.75 0.533 3.5 1.05 5.25 1.56 0.975 0.29 1.95 0.58 2.95 0.879 2.82 0.562 4.16 0.603 6.8-0.441 1.71-1.28 3.38-2.61 5-4 0.66 0.33 1.32 0.66 2 1-0.552 0.32-1.1 0.639-1.67 0.969-2.56 1.89-3.91 3.15-5.33 6.03 0.176 5.49 2.23 10.9 4 16 0.112-0.955 0.224-1.91 0.34-2.89 1.55-10.2 4.28-15.7 11.7-23.1 0 3.63-0.955 4.75-3 7.69-0.557 0.808-1.11 1.62-1.69 2.45-0.65 0.922-0.65 0.922-1.31 1.86 4.78 4.28 10.4 7.04 16 10 0.0864-0.781 0.173-1.56 0.262-2.37 1.58-13 4.19-25.8 6.74-38.6-2.76 2.76-4.97 6.22-7.32 9.34-3.46 4.55-3.46 4.55-5.68 5.66 0.66-1.65 1.32-3.3 2-5-2.19 0-4.58 3.15-6.06 4.5-0.919 0.835-1.84 1.67-2.79 2.53-0.71 0.65-1.42 1.3-2.15 1.97-0.66-0.33-1.32-0.66-2-1 5.28-5.28 10.6-10.6 16-16-2.43 1.22-4.87 2.43-7.38 3.69-0.793 0.395-1.59 0.789-2.4 1.2-3.15 1.57-6.29 3.15-9.41 4.8-0.868 0.456-1.74 0.913-2.63 1.38-0.749 0.403-1.5 0.807-2.27 1.22-1.92 0.715-1.92 0.715-4.92-0.285 3.62-2.05 7.25-4.1 10.9-6.13 1.23-0.691 2.46-1.38 3.68-2.08 7.94-4.5 15.9-8.5 24.4-11.8zm-27 40c-1.29 4.12-2.26 7.67-2 12 2.34-2.26 4.19-4.28 6-7-0.0761-2.14-0.0761-2.14-1-4-0.99-0.33-1.98-0.66-3-1z"/>
<path transform="translate(17,116)" d="m0 0c4.06 1.92 5.67 3.43 7.94 7.31 1.21 4.2 1.3 6.5 0.0625 10.7-3.7 4.5-6.61 6.73-12.4 7.38-4.35-0.45-6.3-1.58-9.62-4.38-2.37-2.93-2.96-4.68-3.44-8.44 0.638-5.2 2.7-8.12 6.69-11.4 3.65-1.49 6.9-1.79 10.8-1.12zm-13 9c-1.22 3.66-1.35 5.22 0.25 8.75 1.72 2.46 1.72 2.46 4.75 4.25 4.94 0.457 8.12 0.213 12-3 1.56-2.7 2.02-4.39 1.94-7.5-1.34-3.57-2.88-5.22-5.94-7.5-5.88-1.48-9.44 0.0353-13 5z"/>
<path transform="translate(334 31.9)" d="m0 0c1.23 0.0135 1.23 0.0135 2.48 0.0273 0.94 0.0174 0.94 0.0174 1.9 0.0352v3c-2.41 1.2-3.95 1.1-6.62 1.06-1.23-0.0135-1.23-0.0135-2.48-0.0273-0.94-0.0174-0.94-0.0174-1.9-0.0352v-3c2.41-1.2 3.95-1.1 6.62-1.06z"/>
<path transform="translate(746,92)" d="m0 0c4.95 0.99 4.95 0.99 10 2 0.33 1.32 0.66 2.64 1 4-3.3-0.66-6.6-1.32-10-2-0.33-1.32-0.66-2.64-1-4z"/>
<path transform="translate(638,63)" d="m0 0c3.63 0.66 7.26 1.32 11 2v4c-3.63-0.66-7.26-1.32-11-2v-4z"/>
<path transform="translate(660,69)" d="m0 0c1.46 0.141 2.92 0.288 4.38 0.438 1.22 0.122 1.22 0.122 2.46 0.246 2.16 0.316 2.16 0.316 4.16 1.32v3c-7.62-0.875-7.62-0.875-11-2v-3z"/>
<path transform="translate(528,43)" d="m0 0c3.63 0.33 7.26 0.66 11 1v4c-3.3-0.33-6.6-0.66-10-1-0.33-1.32-0.66-2.64-1-4z"/>
<path transform="translate(506,40)" d="m0 0c3.63 0.33 7.26 0.66 11 1-0.33 1.32-0.66 2.64-1 4-2.97-0.33-5.94-0.66-9-1-0.33-1.32-0.66-2.64-1-4z"/>
<path transform="translate(271,37)" d="m0 0v4c-3.63 0.33-7.26 0.66-11 1 0.33-1.32 0.66-2.64 1-4 7.75-1 7.75-1 10-1z"/>
<path transform="translate(941,143)" d="m0 0c3.63 0.33 7.26 0.66 11 1-0.33 1.32-0.66 2.64-1 4-3.3-0.66-6.6-1.32-10-2v-3z"/>
<path transform="translate(248,40)" d="m0 0c0.33 1.32 0.66 2.64 1 4-3.63 0.33-7.26 0.66-11 1v-3c3.3-0.66 6.6-1.32 10-2z"/>
<path transform="translate(484,37)" d="m0 0c3.3 0.33 6.6 0.66 10 1v4c-3.3-0.33-6.6-0.66-10-1v-4z"/>
<path transform="translate(316,34)" d="m0 0c-0.33 0.99-0.66 1.98-1 3h-10v-3c4.02-0.841 7.02-1.05 11 0z"/>
<path transform="translate(1418,114)" d="m0 0v2c-1.27 0.506-2.54 1-3.81 1.5-1.06 0.418-1.06 0.418-2.14 0.844-2.04 0.656-2.04 0.656-5.04 0.656v-3c1.27-0.532 2.54-1.05 3.81-1.56 0.708-0.29 1.42-0.58 2.14-0.879 2.04-0.559 2.04-0.559 5.04 0.441z"/>
<path transform="translate(725,85)" d="m0 0c3.3 0.99 6.6 1.98 10 3v3c-3.47-0.458-6.67-0.891-10-2v-4z"/>
<path transform="translate(616,59)" d="m0 0c3.63 0.33 7.26 0.66 11 1v4c-3.3-0.66-6.6-1.32-10-2-0.33-0.99-0.66-1.98-1-3z"/>
<path transform="translate(417,32)" d="m0 0c3.63 0.33 7.26 0.66 11 1v3h-11v-4z"/>
<path transform="translate(1265,150)" d="m0 0v3c-3.63 0.33-7.26 0.66-11 1v-3c3.67-1.18 7.17-1.07 11-1z"/>
<path transform="translate(964,146)" d="m0 0 10 2v3c-3.3-0.33-6.6-0.66-10-1v-4z"/>
<path transform="translate(919,139)" d="m0 0c7.43-0.143 7.43-0.143 11 1v3c-3.3-0.33-6.6-0.66-10-1-0.33-0.99-0.66-1.98-1-3z"/>
<path transform="translate(832,118)" d="m0 0c4.95 0.99 4.95 0.99 10 2-0.33 1.32-0.66 2.64-1 4-2.97-0.99-5.94-1.98-9-3v-3z"/>
<path transform="translate(811,112)" d="m0 0c4.95 0.99 4.95 0.99 10 2-0.33 1.32-0.66 2.64-1 4-2.97-0.99-5.94-1.98-9-3v-3z"/>
<path transform="translate(77,89)" d="m0 0c0.33 1.32 0.66 2.64 1 4-2.97 1.32-5.94 2.64-9 4v-4c2.64-1.32 5.28-2.64 8-4z"/>
<path transform="translate(1541,61)" d="m0 0c-0.125 1.81-0.125 1.81-1 4-3.21 1.95-5.22 3-9 3v-3c1.29-0.672 2.58-1.34 3.88-2 0.719-0.371 1.44-0.742 2.18-1.12 1.95-0.875 1.95-0.875 3.95-0.875z"/>
<path transform="translate(462,35)" d="m0 0c3.3 0.33 6.6 0.66 10 1v3h-10v-4z"/>
<path transform="translate(1287,146)" d="m0 0v3c-2.75 0.917-4.36 1.11-7.19 1.06-1.89-0.0309-1.89-0.0309-3.81-0.0625 0.33-0.99 0.66-1.98 1-3 3.44-0.625 6.49-1 10-1z"/>
<path transform="translate(1396,120)" d="m0 0c-0.33 1.32-0.66 2.64-1 4-2.97 0.66-5.94 1.32-9 2 0.33-1.32 0.66-2.64 1-4 6.75-2 6.75-2 9-2z"/>
<path transform="translate(1479,89)" d="m0 0c0.33 0.99 0.66 1.98 1 3-6.62 4-6.62 4-10 4v-3c2.97-1.32 5.94-2.64 9-4z"/>
<path transform="translate(162,60)" d="m0 0c-1 2-1 2-3.81 3.12-3.19 0.875-3.19 0.875-7.19 0.875v-3c4.12-1.63 6.71-2.26 11-1z"/>
<path transform="translate(293,35)" d="m0 0v3c-3.21 1.61-6.44 1.06-10 1v-3c3.41-0.778 6.51-1.1 10-1z"/>
<path transform="translate(439,34)" d="m0 0h11v3h-11v-3z"/>
<path transform="translate(394,32)" d="m0 0h11v3h-11v-3z"/>
<path transform="translate(986,150)" d="m0 0c3.3 0.33 6.6 0.66 10 1v3c-6.62 0.125-6.62 0.125-10-1v-3z"/>
<path transform="translate(1309,142)" d="m0 0v3c-3.3 0.66-6.6 1.32-10 2v-4c3.41-0.778 6.51-1.1 10-1z"/>
<path transform="translate(140,65)" d="m0 0c-0.33 1.32-0.66 2.64-1 4-2.97 0.66-5.94 1.32-9 2v-3c1.29-0.504 2.58-1 3.88-1.5 1.08-0.418 1.08-0.418 2.18-0.844 1.95-0.656 1.95-0.656 3.95-0.656z"/>
<path transform="translate(372,32)" d="m0 0h11c-0.33 0.99-0.66 1.98-1 3h-10v-3z"/>
<path transform="translate(39,112)" d="m0 0c-1.34 4.03-3.42 4.88-7 7h-2c0.374-2.71 0.814-3.82 2.81-5.75 2.19-1.25 2.19-1.25 6.19-1.25z"/>
<path transform="translate(227,44)" d="m0 0v3c-2.41 1.2-3.95 1.1-6.62 1.06-1.23-0.0135-1.23-0.0135-2.48-0.0273-0.94-0.0174-0.94-0.0174-1.9-0.0352v-2c7.62-2 7.62-2 11-2z"/>
<path transform="translate(350,32)" d="m0 0h10v3h-10v-3z"/>
<path transform="translate(1460,98)" d="m0 0v3c-4.95 1.48-4.95 1.48-10 3v-3c6.62-3 6.62-3 10-3z"/>
<path transform="translate(1053,157)" d="m0 0c1.26-0.0412 2.52-0.0825 3.81-0.125 0.708-0.0232 1.42-0.0464 2.14-0.0703 2.04 0.195 2.04 0.195 5.04 2.2-1 1-1 1-3.07 1.1-0.824-0.0116-1.65-0.0232-2.5-0.0352-0.826-0.00902-1.65-0.018-2.5-0.0273-0.638-0.0116-1.28-0.0232-1.93-0.0352-0.33-0.99-0.66-1.98-1-3z"/>
<path transform="translate(1331,138)" d="m0 0v2c-3.3 0.66-6.6 1.32-10 2v-3c3.47-1.16 6.36-1.07 10-1z"/>
<path transform="translate(854,124)" d="m0 0c4.95 0.99 4.95 0.99 10 2v2c-7.75 0.125-7.75 0.125-10-1v-3z"/>
<path transform="translate(1521,71)" d="m0 0c-0.33 1.32-0.66 2.64-1 4-2.97 0.66-5.94 1.32-9 2v-2c1.29-0.672 2.58-1.34 3.88-2 0.719-0.371 1.44-0.743 2.18-1.12 1.95-0.875 1.95-0.875 3.95-0.875z"/>
<path transform="translate(1198,157)" d="m0 0c-0.33 0.99-0.66 1.98-1 3h-9v-2c3.47-1.16 6.36-1.07 10-1z"/>
<path transform="translate(897,135)" d="m0 0c3.63 0.33 7.26 0.66 11 1v3c-3.63-0.66-7.26-1.32-11-2v-2z"/>
<path transform="translate(1030,155)" d="m0 0c3.63 0.33 7.26 0.66 11 1v2h-10c-0.33-0.99-0.66-1.98-1-3z"/>
<path transform="translate(1008,153)" d="m0 0c1.26-0.0206 2.52-0.0412 3.81-0.0625 0.708-0.0116 1.42-0.0232 2.14-0.0352 2.04 0.0977 2.04 0.0977 5.04 1.1v2c-3.63-0.33-7.26-0.66-11-1v-2z"/>
<path transform="translate(875,129)" d="m0 0 10 2c0.33 0.99 0.66 1.98 1 3-3.3-0.66-6.6-1.32-10-2-0.33-0.99-0.66-1.98-1-3z"/>
<path transform="translate(789,106)" d="m0 0c4.95 0.99 4.95 0.99 10 2v3c-3.3-0.99-6.6-1.98-10-3v-2z"/>
<path transform="translate(768,99)" d="m0 0c1.48 0.254 2.96 0.529 4.44 0.812 1.24 0.226 1.24 0.226 2.5 0.457 1.02 0.362 1.02 0.362 2.07 0.73 0.33 0.99 0.66 1.98 1 3-3.3-0.66-6.6-1.32-10-2v-3z"/>
<path transform="translate(704,80)" d="m0 0c1.48 0.254 2.96 0.529 4.44 0.812 1.24 0.226 1.24 0.226 2.5 0.457 0.682 0.241 1.36 0.482 2.07 0.73 0.33 0.99 0.66 1.98 1 3-3.3-0.66-6.6-1.32-10-2v-3z"/>
<path transform="translate(682,74)" d="m0 0c4.95 0.99 4.95 0.99 10 2v3c-3.3-0.66-6.6-1.32-10-2v-3z"/>
<path transform="translate(205,49)" d="m0 0v2c-3.63 0.66-7.26 1.32-11 2 0.33-0.99 0.66-1.98 1-3 3.41-0.778 6.51-1.1 10-1z"/>
<path transform="translate(1239 153)" d="m0 0c1.89 0.0309 1.89 0.0309 3.81 0.0625v2c-3.63 0.33-7.26 0.66-11 1v-2c2.75-0.917 4.36-1.11 7.19-1.06z"/>
<path transform="translate(1352,132)" d="m0 0c0.33 0.99 0.66 1.98 1 3-3.3 0.66-6.6 1.32-10 2-0.33-0.66-0.66-1.32-1-2 4.95-1.49 4.95-1.49 10-3z"/>
<path transform="translate(1374,126)" d="m0 0v3c-3.62 1.32-6.1 2-10 2v-2c4.95-1.48 4.95-1.48 10-3z"/>
<path transform="translate(1439,106)" d="m0 0c-0.33 0.99-0.66 1.98-1 3-2.07 0.949-2.07 0.949-4.56 1.69-0.826 0.251-1.65 0.503-2.5 0.762-0.638 0.182-1.28 0.364-1.93 0.551v-3c1.29-0.504 2.58-1 3.88-1.5 1.08-0.418 1.08-0.418 2.18-0.844 1.95-0.656 1.95-0.656 3.95-0.656z"/>
<path transform="translate(58,100)" d="m0 0c-1 3-1 3-2.85 4.17-0.731 0.336-1.46 0.673-2.21 1.02-0.733 0.344-1.47 0.688-2.22 1.04-0.849 0.381-0.849 0.381-1.71 0.77v-3c6.75-4 6.75-4 9-4z"/>
<path transform="translate(1501,81)" d="m0 0v2c-1.29 0.672-2.58 1.34-3.88 2-0.719 0.371-1.44 0.743-2.18 1.12-1.95 0.875-1.95 0.875-3.95 0.875 1-3 1-3 3.88-4.69 3.12-1.31 3.12-1.31 6.12-1.31z"/>
<path transform="translate(98,81)" d="m0 0c-1 3-1 3-3.88 4.69-3.12 1.31-3.12 1.31-6.12 1.31v-2c1.29-0.672 2.58-1.34 3.88-2 0.719-0.371 1.44-0.743 2.18-1.12 1.95-0.875 1.95-0.875 3.95-0.875z"/>
<path transform="translate(595,55)" d="m0 0c2.97 0.33 5.94 0.66 9 1 0.33 0.99 0.66 1.98 1 3-3.3-0.66-6.6-1.32-10-2v-2z"/>
<path transform="translate(550,47)" d="m0 0c3.63 0.33 7.26 0.66 11 1v2c-7.43 0.143-7.43 0.143-11-1v-2z"/>
<path transform="translate(1221,156)" d="m0 0c-0.33 0.66-0.66 1.32-1 2h-10v-2c7.62-1.12 7.62-1.12 11 0z"/>
<path transform="translate(119,73)" d="m0 0v2c-6.62 3-6.62 3-10 3v-2c6.62-3 6.62-3 10-3z"/>
<path transform="translate(573,51)" d="m0 0c3.3 0.33 6.6 0.66 10 1-0.33 0.99-0.66 1.98-1 3-4.46-0.99-4.46-0.99-9-2v-2z"/>
<path transform="translate(183,54)" d="m0 0v2c-3.3 0.66-6.6 1.32-10 2v-2c3.62-1.32 6.1-2 10-2z"/>
<path transform="translate(1557,53)" d="m0 0c0.66 0.66 1.32 1.32 2 2-4.62 3-4.62 3-8 3v-2c1.98-0.99 3.96-1.98 6-3z"/>
<path transform="translate(1558,22)" d="m0 0c0.66 0.33 1.32 0.66 2 1-5.27 3.22-5.27 3.22-7 4-0.66-0.33-1.32-0.66-2-1 5.27-3.22 5.27-3.22 7-4z"/>
<path transform="translate(1165,159)" d="m0 0h11v1h-11v-1z"/>
<path transform="translate(1075,159)" d="m0 0h11v1h-11v-1z"/>
<path transform="translate(1583,22)" d="m0 0v3c-0.99 0.495-0.99 0.495-2 1 0.66-1.32 1.32-2.64 2-4z"/>
<path transform="translate(1549,27)" d="m0 0 2 1z"/>
</svg>
